<svg width="148" height="32" fill="none" xmlns="http://www.w3.org/2000/svg"><path fill-rule="evenodd" clip-rule="evenodd" d="M58.703 21.575v2.439l2.402-2.402-2.402-.037z" fill="#FC0"/><path d="M35.322 31.826h2.33l1.631-3.261h5.281l1.63 3.261h2.33L43.4 21.576h-2.95l-5.127 10.25zm4.582-4.504l2.02-4.038 2.019 4.038h-4.038zm14.411 4.504H56.8l6.834-7.61v7.61h2.33v-10.25h-2.486l-6.834 7.61v-7.61h-2.33v10.25zm16.294-8.931h5.28v8.931h2.33v-8.93H83.5v-1.32H70.61v1.32zm17.553 8.931h2.485l6.834-7.61v7.61h2.33v-10.25h-2.485l-6.834 7.61v-7.61h-2.33v10.25zm16.33-8.931h5.281v8.931h2.33v-8.93h5.281v-1.32h-12.892v1.32zm14.604 8.931h2.33l1.631-3.261h5.281l1.631 3.261h2.33l-5.126-10.25h-2.951l-5.126 10.25zm4.582-4.504l2.019-4.038 2.02 4.038h-4.039zm11.713-1.786c0 2.097 1.863 2.097 3.727 2.097h5.592v4.193h2.33v-10.25h-2.33v4.736h-6.058c-.466 0-.932 0-.932-.543v-4.194h-2.329v3.96zM46.248 14.982l-1.45-3.245-1.45 3.245h2.9zm.233.518h-3.367l-.723 1.613h-.666l2.762-6.04h.63l2.762 6.04h-.674l-.724-1.613zm8.58-3.877h-3.218l.008 5.488h-.63v-6.04h3.84v.552zm7.589 4.937v.551h-4.27v-6.04h4.142v.552h-3.504v2.149h3.123v.544h-3.123v2.243h3.633zm8.655-5.489v6.04h-.63v-2.786h-3.78v2.787h-.638v-6.04h.638v2.692h3.78V11.07h.63zm8.172.552h-2.123v5.488h-.63v-5.488h-2.122v-.552h4.875v.552zm2.714 2.449c0-1.77 1.347-3.072 3.167-3.072.88 0 1.675.293 2.21.88l-.406.406c-.493-.5-1.096-.716-1.786-.716-1.459 0-2.555 1.07-2.555 2.502 0 1.433 1.096 2.502 2.555 2.502.69 0 1.293-.215 1.786-.724l.406.405c-.535.587-1.33.89-2.218.89-1.812 0-3.159-1.303-3.159-3.073zm12.753-2.449h-2.123v5.488h-.63v-5.488h-2.122v-.552h4.875v.552zm7.563 3.815c0-.786-.544-1.14-1.562-1.14H98.9v2.304h2.045c1.018 0 1.562-.37 1.562-1.165zm-3.608-1.632h1.847c.923 0 1.45-.38 1.45-1.113 0-.725-.527-1.112-1.45-1.112H98.9v2.225zm4.237 1.674c0 1.036-.733 1.631-2.191 1.631H98.27v-6.04h2.511c1.268 0 2.054.536 2.054 1.545 0 .7-.38 1.156-.984 1.38.846.173 1.285.682 1.285 1.484zm8.966-1.408c0-1.441-1.079-2.502-2.529-2.502-1.458 0-2.545 1.06-2.545 2.502 0 1.442 1.087 2.502 2.545 2.502 1.45 0 2.529-1.06 2.529-2.502zm-5.703 0c0-1.76 1.345-3.072 3.174-3.072 1.813 0 3.168 1.303 3.168 3.072 0 1.77-1.355 3.072-3.168 3.072-1.829 0-3.174-1.311-3.174-3.072z" fill="#fff"/><path d="M3.22 8a.923.923 0 100-1.845.923.923 0 000 1.846z" fill="#1A1A1A"/><path d="M16.453 30.773c8.497 0 15.386-6.889 15.386-15.386C31.839 6.889 24.95 0 16.453 0 7.955 0 1.066 6.889 1.066 15.386c0 8.498 6.889 15.387 15.386 15.387z" fill="url(#paint0_linear_621_1300)"/><path d="M5.068 1.23a.307.307 0 100-.613.307.307 0 000 .613zm22.771 28.31a.307.307 0 100-.613.307.307 0 000 .614z" fill="#1A1A1A"/><path d="M18.868 15.877C14.24 19.213 2.94 27.547.708 30.842c-1.219 1.822 3.576.736 8.083-1.181C2.8 32.253.924 32.173.327 31.82c-2.616-1.664 11.176-13.57 16.575-18.085 2.334-2.126 4.424.674 1.966 2.141z" fill="#FC0"/><path d="M24.097 16.413l-1.05-4.365a2.025 2.025 0 00-.689-1.098l-3.464-2.86 4.568 2.06c.491.22.8.717.784 1.255l-.149 5.008z" fill="#fff"/><path d="M22.55 22.438l.066-8.184c.005-.64.31-1.24.821-1.624l11.04-8.248-11.17 18.275c-.216.355-.76.197-.758-.219zM12.802 6.84l7.386 3.528c.579.275 1.25.267 1.819-.026l12.25-6.307-21.32 2.03c-.41.04-.511.597-.135.775z" fill="#fff"/><defs><linearGradient id="paint0_linear_621_1300" x1="27.334" y1="4.507" x2="5.573" y2="26.267" gradientUnits="userSpaceOnUse"><stop offset=".397" stop-color="#1A1A1A"/><stop offset="1"/></linearGradient></defs></svg>